<svg xmlns="http://www.w3.org/2000/svg" viewBox="0 0 1600 900" role="img" aria-labelledby="title desc">
  <title id="title">安全並且精心編排的失控</title>
  <desc id="desc">你可能會出神，事後忘記過程做了什麼，但不會受傷。</desc>
  <defs>
    <linearGradient id="bg" x1="0%" y1="0%" x2="100%" y2="100%">
      <stop offset="0%" stop-color="#040404" />
      <stop offset="60%" stop-color="#101114" />
      <stop offset="100%" stop-color="#19120f" />
    </linearGradient>
    <linearGradient id="panel" x1="0%" y1="0%" x2="100%" y2="0%">
      <stop offset="0%" stop-color="#030303" stop-opacity="0.98" />
      <stop offset="75%" stop-color="#0a0a0d" stop-opacity="0.94" />
      <stop offset="100%" stop-color="#0a0a0d" stop-opacity="0.15" />
    </linearGradient>
    <linearGradient id="accent" x1="0%" y1="0%" x2="100%" y2="0%">
      <stop offset="0%" stop-color="#ff3b30" />
      <stop offset="100%" stop-color="#ff7a21" />
    </linearGradient>
    <radialGradient id="glow" cx="78%" cy="42%" r="42%">
      <stop offset="0%" stop-color="#ff4d3d" stop-opacity="0.3" />
      <stop offset="100%" stop-color="#ff4d3d" stop-opacity="0" />
    </radialGradient>
  </defs>
  <rect width="1600" height="900" fill="url(#bg)" />
  <rect width="760" height="900" fill="url(#panel)" />
  <rect x="0" y="0" width="1600" height="900" fill="url(#glow)" />
  <g opacity="0.22">
    <path d="M1080 130 L1370 130" stroke="#ff3b30" stroke-width="6" />
    <path d="M1140 190 L1470 190" stroke="#ff3b30" stroke-width="2" />
    <path d="M1020 610 L1510 610" stroke="#ffffff" stroke-width="1.2" />
    <path d="M1180 670 L1490 670" stroke="#ff3b30" stroke-width="2" />
    <circle cx="1260" cy="430" r="240" fill="none" stroke="#ff3b30" stroke-opacity="0.22" stroke-width="2" />
    <circle cx="1260" cy="430" r="170" fill="none" stroke="#ffffff" stroke-opacity="0.1" stroke-width="1.5" />
  </g>
  <g opacity="0.9">
    <path d="M980 220 L1090 120 L1450 120 L1560 220" fill="none" stroke="#ff3b30" stroke-width="4" />
    <path d="M980 680 L1090 780 L1450 780 L1560 680" fill="none" stroke="#ff3b30" stroke-width="4" />
    <path d="M950 250 L950 650" fill="none" stroke="#ffffff" stroke-opacity="0.18" stroke-width="2" />
    <path d="M1590 250 L1590 650" fill="none" stroke="#ffffff" stroke-opacity="0.18" stroke-width="2" />
  </g>
  <g transform="translate(92 106)">
    <text x="0" y="0" fill="#ff3b30" font-size="28" font-weight="800" font-family="'Arial Black', 'Noto Sans TC', sans-serif" letter-spacing="3">EXPERIENCE FLOW</text>
    <rect x="0" y="36" width="168" height="42" rx="21" fill="#17181c" stroke="#ffffff" stroke-opacity="0.12" />
    <text x="26" y="65" fill="#ffffff" font-size="24" font-weight="700" font-family="'Noto Sans TC', 'Microsoft JhengHei', sans-serif">SECTION 03</text>
    <text x="0" y="180" fill="#ffffff" font-size="96" font-weight="900" font-family="'Noto Sans TC', 'Microsoft JhengHei', sans-serif">安全並且</text>
    <text x="0" y="294" fill="#ffffff" font-size="96" font-weight="900" font-family="'Noto Sans TC', 'Microsoft JhengHei', sans-serif">精心編排的失控</text>
    <rect x="0" y="350" width="126" height="8" rx="4" fill="url(#accent)" />
    <text x="0" y="452" fill="#f6f6f6" font-size="42" font-weight="500" font-family="'Noto Sans TC', 'Microsoft JhengHei', sans-serif">
      <tspan x="0" dy="0">你可能會出神，事後忘記過程做了什麼，</tspan>
      <tspan x="0" dy="64">但不會受傷。</tspan>
    </text>
    <text x="0" y="666" fill="#ff3b30" font-size="28" font-weight="800" font-family="'Arial Black', 'Noto Sans TC', sans-serif" letter-spacing="4">CONTROLLED CHAOS</text>
    <text x="0" y="718" fill="#d6d6d8" font-size="26" font-weight="500" font-family="'Noto Sans TC', 'Microsoft JhengHei', sans-serif">每一步都被設計過，讓你放心進入狀態。</text>
  </g>
  <g transform="translate(1010 250)">
    <text x="0" y="0" fill="#ffffff" fill-opacity="0.08" font-size="320" font-weight="900" font-family="'Arial Black', Impact, sans-serif">05</text>
    <rect x="70" y="98" width="320" height="320" rx="34" fill="#0d0f12" stroke="#ff3b30" stroke-opacity="0.6" stroke-width="4" />
    <rect x="116" y="144" width="228" height="228" rx="22" fill="none" stroke="#ffffff" stroke-opacity="0.18" stroke-width="2" />
    <path d="M178 258 H332" stroke="#ff3b30" stroke-width="12" stroke-linecap="round" />
    <path d="M178 198 H288" stroke="#ffffff" stroke-opacity="0.82" stroke-width="12" stroke-linecap="round" />
    <path d="M178 318 H298" stroke="#ffffff" stroke-opacity="0.82" stroke-width="12" stroke-linecap="round" />
    <circle cx="358" cy="258" r="18" fill="#ff3b30" />
  </g>
</svg>
