<svg xmlns="http://www.w3.org/2000/svg" width="1080" height="1080" viewBox="0 0 1080 1080">
  <title>Fight Night Pass ad 01 - tonight state</title>
  <defs>
    <linearGradient id="shade" x1="0" x2="1" y1="0" y2="0">
      <stop offset="0" stop-color="#020202" stop-opacity="0.98"/>
      <stop offset="0.45" stop-color="#020202" stop-opacity="0.68"/>
      <stop offset="0.76" stop-color="#020202" stop-opacity="0.16"/>
      <stop offset="1" stop-color="#020202" stop-opacity="0"/>
    </linearGradient>
    <linearGradient id="bottom" x1="0" x2="0" y1="0" y2="1">
      <stop offset="0" stop-color="#020202" stop-opacity="0"/>
      <stop offset="0.74" stop-color="#020202" stop-opacity="0.55"/>
      <stop offset="1" stop-color="#020202" stop-opacity="0.92"/>
    </linearGradient>
    <style>
      .sans { font-family: "Noto Sans TC", "Microsoft JhengHei", Arial, sans-serif; }
      .headline { font-weight: 900; font-size: 94px; letter-spacing: 0; fill: #fff; }
      .sub { font-weight: 600; font-size: 30px; letter-spacing: 0; fill: #f6f2f2; }
      .micro { font-weight: 800; font-size: 22px; letter-spacing: 0; fill: #e71921; }
      .cta { font-weight: 900; font-size: 28px; letter-spacing: 0; fill: #fff; }
    </style>
  </defs>
  <rect width="1080" height="1080" fill="#050505"/>
  <image href="../../src/assets/landing/train-different-poster.jpg" x="-520" y="0" width="1920" height="1080" preserveAspectRatio="xMidYMid slice"/>
  <rect width="1080" height="1080" fill="url(#shade)"/>
  <rect width="1080" height="1080" fill="url(#bottom)"/>
  <path d="M0 0 L0 1080 L510 1080 C438 820 438 594 510 0 Z" fill="#030303" opacity="0.86"/>
  <path d="M74 97 h76" stroke="#e71921" stroke-width="10"/>
  <path d="M74 778 h122" stroke="#e71921" stroke-width="8"/>
  <path d="M74 806 h42" stroke="#e71921" stroke-width="8"/>
  <text class="sans micro" x="74" y="154">FIGHT NIGHT PASS</text>
  <text class="sans headline" x="70" y="302">下班後</text>
  <text class="sans headline" x="70" y="424">進入<tspan fill="#e71921">狀態</tspan></text>
  <text class="sans sub" x="74" y="508">拳套戴上去，</text>
  <text class="sans sub" x="74" y="558">今晚就不是普通的一晚。</text>
  <g transform="translate(74 900)">
    <rect x="0" y="0" width="360" height="72" rx="36" fill="#e71921"/>
    <text class="sans cta" x="32" y="47">查看今晚場次</text>
  </g>
  <text class="sans micro" x="74" y="1018" fill="#fff">UFC GYM TAIWAN</text>
</svg>
