<?xml version="1.0" encoding="utf-8"?>
<!-- 深色背景版本：非紅色元素改為白色 -->
<svg version="1.1" id="Layer_1" xmlns="http://www.w3.org/2000/svg" xmlns:xlink="http://www.w3.org/1999/xlink" x="0px" y="0px"
	 viewBox="0 0 436 167" style="enable-background:new 0 0 436 167;" xml:space="preserve">
<style type="text/css">
	.st0{fill:#D20A0A;}
</style>
<g transform="translate(92 25)" fill="#f0f0f5">
	<polygon class="st0" points="95.1,5.8 28.1,5.8 33.7,-14.2 100.6,-14.2 	"/>
	<polygon class="st0" points="49.7,39.6 85.7,39.6 91.2,19.6 24.3,19.6 8.4,76.8 39.4,76.8 	"/>
	<g transform="translate(0 .777)">
		<path class="st0" d="M125.6,55.3c-0.8-0.5-1.3-1.1-1.5-1.8c-0.1-0.2-0.1-0.5-0.1-0.7s0-0.4,0.1-0.7l12.1-43.7
			c0.4-1.3,1-2.1,1.8-2.6c0.9-0.5,2.4-0.7,4.6-0.7H176l5.6-20h-46.9c-8.5,0-14.5,1-18,2.9s-5.9,5.3-7.3,10.4L92.3,60.6
			c-0.3,0.9-0.4,1.9-0.5,2.7c-0.1,1,0.1,1.9,0.3,2.8c0.8,3,2.8,5.4,6,7.3c3.1,1.8,7.1,2.7,11.8,2.7H159l5.6-20h-35.9
			C127.4,56,126.4,55.8,125.6,55.3 M-59.4-15l-21,75.6c-0.3,0.9-0.4,1.9-0.5,2.7c-0.1,1,0.1,1.9,0.3,2.8c0.8,3,2.8,5.4,6,7.3
			c3.1,1.8,7.1,2.7,11.8,2.7h34.9c8.5,0,14.5-1,18-2.9s5.9-5.3,7.3-10.3L18.9-15h-31l-18.8,67.6c-0.4,1.3-1,2.1-1.8,2.6
			c-0.9,0.5-2.4,0.7-4.6,0.7h-5.3c-1.2,0-2.2-0.2-3-0.7s-1.3-1.1-1.5-1.8c-0.1-0.2-0.1-0.5-0.1-0.7s0-0.4,0.1-0.7l18.7-67H-59.4z"/>
		<polygon class="st0" points="328.2,66 177.2,66 174.4,76 325.4,76 		"/>
		<path d="M206.7,28.3l-2.5,9.2h6.9l-2.4,8.5c-2.2,0.5-5.3,0.8-7.6,0.8c-4.8,0-6.2-1.8-5.9-5c0.1-0.8,0.3-1.7,0.5-2.5l5-17.7
			c1.2-4.5,3.5-7.1,9.4-7.1c4.1,0,10.4,0.8,14.4,1.9l3.5-9.7c-3.9-1.2-10.5-2.5-15.8-2.5c-13.6,0-19.7,5.6-22.2,14.9l-6,22.2
			c-0.3,1-0.5,2.2-0.6,3.2c-0.8,7.4,3.9,12.3,15.7,12.3c7,0,13.3-1.3,18.1-3.3l7-25.2H206.7L206.7,28.3z"/>
		<polygon points="249,56.1 237.6,56.1 241.5,41.3 235.3,5 246.7,5 250.3,28.6 265.8,5 278.8,5 252.8,41.3 		"/>
		<polygon points="319.6,28.1 305,49.3 293.5,49.3 291.1,28.1 281.9,56 270.8,56 287.5,5 298.8,5 302.2,37.9 323.8,5 335,5 
			324.5,56 313.5,56 		"/>
		<polygon points="191.8,92.5 191.2,95 184.4,95 175.5,133.5 172.6,133.5 181.5,95 174.5,95 175.1,92.5 		"/>
		<path d="M206.4,95.4l-9.3,22.9h7.7L206.4,95.4z M205,92.3h3.9l-2.3,41.2h-2.8l0.8-12.5h-8.7l-5.1,12.5h-3L205,92.3z"/>
		<polygon points="229.7,92.5 220.3,133.5 217.5,133.5 227,92.5 		"/>
		<polygon points="270.8,92.5 254.7,133.5 251.6,133.5 254.6,98.2 241.1,133.5 238.1,133.5 240.6,92.5 243.5,92.5 240.6,128.2 
			254.3,92.5 257.3,92.5 254.3,127.9 267.8,92.5 		"/>
		<path d="M288.4,95.4l-9.3,22.9h7.7L288.4,95.4z M287,92.3h3.9l-2.3,41.2h-2.8l0.8-12.5h-8.7l-5.1,12.5h-3L287,92.3z M325.2,92.5
			l-9.5,41h-4.4l-0.3-17.6c-0.2-9.1-0.4-18.6-0.4-20.4l-8.5,38h-2.7l9.5-41h4.2c0,1.8,0.2,11.6,0.4,20.9l0.4,18.2l8.6-39.2
			L325.2,92.5L325.2,92.5z"/>
	</g>
</g>
</svg>
